<svg xmlns="http://www.w3.org/2000/svg" viewBox="0 0 380 700" style="font-family: -apple-system, BlinkMacSystemFont, 'Segoe UI', sans-serif; font-size: 11px;">
  <!-- Container (dark theme) -->
  <rect x="10" y="10" width="360" height="680" fill="#252526" stroke="#0066cc" stroke-width="2"/>

  <!-- Header -->
  <rect x="10" y="10" width="360" height="35" fill="#2d2d30" stroke="#3e3e42" stroke-width="1"/>
  <text x="20" y="32" fill="#ccc" font-weight="bold" font-size="13">Related</text>
  <text x="340" y="32" fill="#888" font-size="14">×</text>

  <!-- Context section -->
  <rect x="20" y="55" width="340" height="50" fill="#1e1e1e" stroke="#3e3e42" stroke-width="1"/>
  <text x="25" y="72" font-size="10" fill="#888">Context: Current selection</text>
  <text x="25" y="92" fill="#ccc" font-weight="bold">"SQLite integration"</text>

  <!-- Status indicator -->
  <rect x="20" y="115" width="340" height="30" fill="#1e1e1e" stroke="#3e3e42" stroke-width="1"/>
  <text x="25" y="133" fill="#ccc">🔍 Auto-updating...</text>
  <circle cx="340" cy="130" r="6" fill="#00ff00"/>

  <!-- Result 1 -->
  <rect x="20" y="155" width="340" height="130" fill="#1e1e1e" stroke="#3e3e42" stroke-width="1"/>
  <text x="25" y="173" font-weight="bold" font-size="12" fill="#ccc">📄 database.md</text>
  <text x="25" y="190" font-size="11" fill="#569cd6">## Using SQLite for storage</text>

  <!-- Snippet box -->
  <rect x="30" y="200" width="320" height="45" fill="#2d2d30" stroke="#444" stroke-width="1"/>
  <text x="35" y="215" font-size="9" fill="#999">We use SQLite as our</text>
  <text x="35" y="228" font-size="9" fill="#999">primary embedded database</text>
  <text x="35" y="241" font-size="9" fill="#999">with WAL mode...</text>

  <text x="25" y="260" font-size="10" fill="#4ec9b0">Score: 0.92 (BM25:0.4, Vec:0.6)</text>
  <rect x="25" y="265" width="80" height="16" fill="#2d2d30" stroke="#569cd6" stroke-width="1" rx="2"/>
  <text x="30" y="277" font-size="9" fill="#ccc">[Open in Tab]</text>
  <rect x="110" y="265" width="45" height="16" fill="#2d2d30" stroke="#569cd6" stroke-width="1" rx="2"/>
  <text x="115" y="277" font-size="9" fill="#ccc">[Copy]</text>
  <rect x="160" y="265" width="50" height="16" fill="#2d2d30" stroke="#569cd6" stroke-width="1" rx="2"/>
  <text x="165" y="277" font-size="9" fill="#ccc">[Insert]</text>

  <!-- Result 2 -->
  <rect x="20" y="295" width="340" height="110" fill="#1e1e1e" stroke="#3e3e42" stroke-width="1"/>
  <text x="25" y="313" font-weight="bold" font-size="12" fill="#ccc">📄 tech-stack.md</text>
  <text x="25" y="330" font-size="11" fill="#569cd6">## Database Layer</text>

  <!-- Snippet box -->
  <rect x="30" y="340" width="320" height="35" fill="#2d2d30" stroke="#444" stroke-width="1"/>
  <text x="35" y="355" font-size="9" fill="#999">SQLite provides a robust</text>
  <text x="35" y="368" font-size="9" fill="#999">embedded SQL database...</text>

  <text x="25" y="388" font-size="10" fill="#4ec9b0">Score: 0.87</text>
  <rect x="25" y="390" width="80" height="16" fill="#2d2d30" stroke="#569cd6" stroke-width="1" rx="2"/>
  <text x="30" y="402" font-size="9" fill="#ccc">[Open in Tab]</text>
  <rect x="110" y="390" width="45" height="16" fill="#2d2d30" stroke="#569cd6" stroke-width="1" rx="2"/>
  <text x="115" y="402" font-size="9" fill="#ccc">[Copy]</text>
  <rect x="160" y="390" width="50" height="16" fill="#2d2d30" stroke="#569cd6" stroke-width="1" rx="2"/>
  <text x="165" y="402" font-size="9" fill="#ccc">[Insert]</text>

  <!-- Result 3 -->
  <rect x="20" y="415" width="340" height="70" fill="#1e1e1e" stroke="#3e3e42" stroke-width="1"/>
  <text x="25" y="433" font-weight="bold" font-size="12" fill="#ccc">📄 performance.md</text>
  <text x="25" y="450" font-size="11" fill="#569cd6">## SQLite Query Optimization</text>
  <text x="25" y="467" font-size="10" fill="#4ec9b0">Score: 0.81</text>
  <rect x="25" y="470" width="80" height="16" fill="#2d2d30" stroke="#569cd6" stroke-width="1" rx="2"/>
  <text x="30" y="482" font-size="9" fill="#ccc">[Open in Tab]</text>

  <text x="25" y="510" font-size="10" fill="#666">... (7 more results)</text>

  <!-- Settings section -->
  <line x1="20" y1="530" x2="360" y2="530" stroke="#3e3e42" stroke-width="1"/>
  <text x="25" y="550" font-weight="bold" font-size="11" fill="#ccc">Settings:</text>
  <text x="25" y="570" font-size="10" fill="#ccc">Results:</text>
  <rect x="75" y="558" width="50" height="18" fill="#1e1e1e" stroke="#569cd6" stroke-width="1"/>
  <text x="95" y="571" font-size="10" fill="#ccc">10 ▼</text>

  <rect x="23" y="585" width="12" height="12" fill="#1e1e1e" stroke="#569cd6" stroke-width="1"/>
  <line x1="25" y1="591" x2="33" y2="591" stroke="#0066cc" stroke-width="2"/>
  <text x="40" y="595" font-size="10" fill="#ccc">Auto-update on selection</text>

  <!-- Collapse button -->
  <rect x="20" y="620" width="340" height="60" fill="#2d2d30" stroke="#444" stroke-width="1"/>
  <text x="25" y="640" font-size="9" fill="#888">Click edge or press Cmd+Option+R</text>
  <text x="25" y="655" font-size="9" fill="#888">to collapse this panel</text>
  <rect x="140" y="660" width="100" height="18" fill="#0066cc" stroke="#0066cc" stroke-width="1" rx="2"/>
  <text x="160" y="673" font-size="9" fill="white">[Collapse ◂]</text>
</svg>
