<svg xmlns="http://www.w3.org/2000/svg" viewBox="0 0 900 900" style="font-family: -apple-system, BlinkMacSystemFont, 'Segoe UI', sans-serif; font-size: 11px;">
  <!-- Modal overlay -->
  <rect x="0" y="0" width="900" height="900" fill="#000" opacity="0.5"/>

  <!-- Container (dark theme modal) -->
  <rect x="50" y="30" width="800" height="840" fill="#252526" stroke="#0066cc" stroke-width="2" rx="6"/>

  <!-- Header -->
  <rect x="50" y="30" width="800" height="40" fill="#2d2d30" stroke="#3e3e42" stroke-width="1" rx="6"/>
  <text x="70" y="55" fill="#ccc" font-weight="bold" font-size="14">Timeline: [[SQLite]] Entity</text>
  <text x="820" y="55" fill="#888" font-size="16">×</text>

  <!-- Timeline slider section -->
  <rect x="70" y="90" width="760" height="95" fill="#1e1e1e" stroke="#3e3e42" stroke-width="1"/>
  <text x="80" y="110" font-weight="bold" font-size="11" fill="#ccc">As-of Date Slider:</text>

  <!-- Timeline axis -->
  <text x="80" y="140" font-size="9" fill="#888">2023-06</text>
  <text x="250" y="140" font-size="9" fill="#888">2024-01</text>
  <text x="420" y="140" font-size="9" fill="#888">2024-06</text>
  <text x="590" y="140" font-size="9" fill="#888">2024-10</text>
  <text x="770" y="140" font-size="9" fill="#888">NOW</text>

  <line x1="120" y1="145" x2="780" y2="145" stroke="#666" stroke-width="2"/>
  <line x1="120" y1="140" x2="120" y2="150" stroke="#666" stroke-width="2"/>
  <line x1="285" y1="140" x2="285" y2="150" stroke="#666" stroke-width="2"/>
  <line x1="450" y1="140" x2="450" y2="150" stroke="#666" stroke-width="2"/>
  <line x1="615" y1="140" x2="615" y2="150" stroke="#666" stroke-width="2"/>
  <line x1="780" y1="140" x2="780" y2="150" stroke="#666" stroke-width="2"/>

  <!-- Slider handle -->
  <circle cx="615" cy="145" r="8" fill="#0066cc" stroke="#0066cc" stroke-width="2"/>

  <text x="575" y="170" font-size="10" font-weight="bold" fill="#ccc">2024-10-15</text>

  <!-- Timeline Events section -->
  <line x1="70" y1="195" x2="830" y2="195" stroke="#3e3e42" stroke-width="1"/>
  <text x="80" y="215" font-weight="bold" font-size="12" fill="#ccc">Timeline Events:</text>

  <!-- Event 1: 2024-10-01 -->
  <rect x="80" y="230" width="740" height="135" fill="#1e1e1e" stroke="#3e3e42" stroke-width="1"/>
  <text x="85" y="248" font-size="11" font-weight="bold" fill="#4ec9b0">📅 2024-10-01  [ACTIVE]</text>
  <text x="85" y="265" font-size="10" fill="#ccc">├─ docs/tech-stack.md</text>
  <text x="85" y="282" font-size="10" fill="#888">│  "Migrated from sqlite-vss to sqlite-vec"</text>
  <text x="85" y="299" font-size="9" fill="#569cd6">│  Relationship: USES sqlite-vec (valid_from: 2024-10-01)</text>
  <text x="85" y="316" font-size="9" fill="#ff9999">│  Relationship: USED sqlite-vss (valid_to: 2024-10-01)</text>
  <rect x="85" y="325" width="90" height="18" fill="#2d2d30" stroke="#569cd6" stroke-width="1" rx="2"/>
  <text x="95" y="338" font-size="9" fill="#ccc">[View Section]</text>

  <!-- Event 2: 2024-01-15 -->
  <rect x="80" y="375" width="740" height="115" fill="#1e1e1e" stroke="#3e3e42" stroke-width="1"/>
  <text x="85" y="393" font-size="11" font-weight="bold" fill="#ccc">📅 2024-01-15</text>
  <text x="85" y="410" font-size="10" fill="#ccc">├─ docs/vector-search.md</text>
  <text x="85" y="427" font-size="10" fill="#888">│  "Implemented vector search with sqlite-vss"</text>
  <text x="85" y="444" font-size="9" fill="#569cd6">│  Relationship: USES sqlite-vss (valid_from: 2024-01-15)</text>
  <rect x="85" y="453" width="90" height="18" fill="#2d2d30" stroke="#569cd6" stroke-width="1" rx="2"/>
  <text x="95" y="466" font-size="9" fill="#ccc">[View Section]</text>

  <!-- Event 3: 2023-06-10 -->
  <rect x="80" y="500" width="740" height="115" fill="#1e1e1e" stroke="#3e3e42" stroke-width="1"/>
  <text x="85" y="518" font-size="11" font-weight="bold" fill="#ccc">📅 2023-06-10</text>
  <text x="85" y="535" font-size="10" fill="#ccc">├─ docs/architecture.md</text>
  <text x="85" y="552" font-size="10" fill="#888">│  "Using SQLite for embedded storage"</text>
  <text x="85" y="569" font-size="9" fill="#888">│  Entity: SQLite first mentioned</text>
  <rect x="85" y="578" width="90" height="18" fill="#2d2d30" stroke="#569cd6" stroke-width="1" rx="2"/>
  <text x="95" y="591" font-size="9" fill="#ccc">[View Section]</text>

  <!-- Query summary section -->
  <line x1="70" y1="625" x2="830" y2="625" stroke="#3e3e42" stroke-width="1"/>
  <rect x="70" y="635" width="760" height="175" fill="#1e1e1e" stroke="#3e3e42" stroke-width="1"/>
  <text x="80" y="655" font-weight="bold" font-size="12" fill="#ccc">Query as of: 2024-10-15</text>

  <text x="80" y="685" font-weight="bold" font-size="11" fill="#ccc">Active Relationships:</text>
  <text x="80" y="705" font-size="10" fill="#888">• ERFANA USES SQLite (since 2023-06-10)</text>
  <text x="80" y="723" font-size="10" fill="#888">• SQLite PROVIDES FTS5 (since 2023-06-10)</text>
  <text x="80" y="741" font-size="10" fill="#888">• SQLite INTEGRATES_WITH sqlite-vec (since 2024-10-01)</text>

  <text x="80" y="771" font-weight="bold" font-size="11" fill="#ccc">Historical Changes:</text>
  <text x="80" y="791" font-size="10" fill="#ff9999">• sqlite-vss replaced by sqlite-vec (2024-10-01)</text>

  <!-- Action buttons -->
  <line x1="70" y1="820" x2="830" y2="820" stroke="#3e3e42" stroke-width="1"/>
  <rect x="70" y="825" width="760" height="35" fill="#1e1e1e" stroke="#3e3e42" stroke-width="1"/>
  <rect x="300" y="833" width="130" height="24" fill="#2d2d30" stroke="#569cd6" stroke-width="1" rx="3"/>
  <text x="320" y="849" font-size="10" fill="#ccc">[Export Timeline]</text>
  <rect x="440" y="833" width="170" height="24" fill="#2d2d30" stroke="#569cd6" stroke-width="1" rx="3"/>
  <text x="455" y="849" font-size="10" fill="#ccc">[Detect Contradictions]</text>

  <text x="75" y="850" font-size="9" fill="#666">M4+ feature • Esc to close</text>
</svg>
